<svg id="Groupe_2" data-name="Groupe 2" xmlns="http://www.w3.org/2000/svg" xmlns:xlink="http://www.w3.org/1999/xlink" width="380.275" height="294.688" viewBox="0 0 380.275 294.688">
  <defs>
    <clipPath id="clip-path">
      <rect id="Rectangle_1" data-name="Rectangle 1" width="380.275" height="294.688" fill="none"/>
    </clipPath>
  </defs>
  <g id="Groupe_1" data-name="Groupe 1" clip-path="url(#clip-path)">
    <path id="Tracé_1" data-name="Tracé 1" d="M265.526,4.583c-.187-.043-.371-.083-.554-.127.187.044.375.087.558.132l.171-.037c-.056.009-.115.021-.175.032M143.839,74.692l.036.2h0c-.012-.072-.024-.135-.04-.2" transform="translate(-47.951 -1.485)" fill="#fffffe"/>
    <path id="Tracé_2" data-name="Tracé 2" d="M143.878,110.018h0l-.036-.2c.016.068.028.131.04.2" transform="translate(-47.95 -36.608)" fill="#ffa900"/>
    <path id="Tracé_3" data-name="Tracé 3" d="M313.114,54.3c-.933-6.416-4.666-11.573-7.142-17.273a41.731,41.731,0,0,0-6.392-9.5c-.339-.41-.769-.765-.565-1.387l-.024,0a.9.9,0,0,1-1.208-.885,4.425,4.425,0,0,1-.685-.331A73.307,73.307,0,0,0,275.956,15a2.777,2.777,0,0,1-2.511-.765h0c-.889.02-1.865.343-2.411-.745l-.016,0c-2.3.307-4.428-.641-6.584-1.08-2.113-.427-4.272-.861-6.38-1.168a116.194,116.194,0,0,0-24.733-.757c-3.723.263-7.636.279-11.227,1.5-3.913,1.327-8.1,1.419-11.935,3.009a5.846,5.846,0,0,1-2.16.012l0-.008a12.639,12.639,0,0,1-6.492,2.391.146.146,0,0,0-.231.079A5.374,5.374,0,0,1,197.684,19l-.052.016c-.243.829-.841.913-1.562.753l-.052.016c-.207.881-.829.933-1.554.781l-.036.008c-.2.885-.825.929-1.543.805l-.04.016c-.207.837-.833.893-1.53.809l-.044.02c-.223.749-.8.865-1.471.821l-.091.044c-.713.685-1.22,1.705-2.471,1.486A74.135,74.135,0,0,0,173.6,35.014a74.917,74.917,0,0,0-7.847,8.935,56.893,56.893,0,0,0-9.976,20.768c.1.526.2,1.052-.371,1.4l-.012.012c-.019.024-.051.068-.051.068l.051.087c.016,1.785.905,2.28,2.659,2.244,5.548-.111,11.095-.048,16.647-.032a8.456,8.456,0,0,1,2.937.267c1.1.387,1.395-.319,1.379-1.263-2.551-.937-3.719-2.894-3.025-5.492a19.571,19.571,0,0,1,1.805-4.364c.8-1.447,1.845-.749,2.491.171,1.519,2.156,2.5,4.5,1.714,7.237.307,3.435.307,3.435,4.081,3.435q58.661-.006,117.327.032a33.443,33.443,0,0,0,7.241-.977c2.555-.562,3.371-3.073,3.324-5.464a63.549,63.549,0,0,0-.857-7.779M188.2,36.357c-4.176,3.332-8.429,6.572-11.96,10.6-2.056,2.347-3.893,4.882-5.894,7.277-.638.765-1.351,1.781-2.6,1.2-1.351-.63-2.547-1.459-2.4-3.141-.107-1.614.817-2.675,1.67-3.751a94.728,94.728,0,0,1,17.061-16.989c1.877-1.423,3.475-1.467,4.818.036,1.355,1.519,1.235,3.22-.7,4.766m10.876,18.4a7.28,7.28,0,0,0-2.67.4c-1.192.227-2.327.283-3.085-.929-.622-.291-1.531-.251-1.495-1.3l-.076-.107c-1.969-1.471-2.032-2.375-.183-3.774s3.865-1.873,6.033-.65l2.077,1.028c1.375.239,3.029.116,2.953,2.248-.052,1.375-2.2,3.308-3.555,3.085m10.57-30.284a114.014,114.014,0,0,0-14.973,7.194c-1.607.929-2.675-.223-3.4-1.431-.637-1.056-1.407-2.247.211-3.367,2.7-1.869,5.743-3.081,8.6-4.639,2.678-1.463,5.488-2.7,8.25-4.009,1.638-.781,2.646-.375,3.32,1.3.267.669.478,1.363.661,1.9-.091,1.861-1.455,2.571-2.666,3.053m13.518,33.839c-1.873-1.463-4.284-2.483-5.165-5.006-.821-2.451.446-4.634,2.706-4.626.729,0,1.495.019,1.571,1.04,2.781,1.415,3.547,3.941,3.619,6.775.039,1.713-1.459,2.809-2.73,1.817m3.24-18.3c-2.113-.387-4.5-.51-6.134-2.5-.936-1.136-1.654-2.555-.689-3.8a3.463,3.463,0,0,1,4.148-1.08,9.061,9.061,0,0,1,5.038,5.348c.542,1.375-.2,2-2.363,2.029m13.438-16.774a7.684,7.684,0,0,1-5.691.992c-1.371-.279-1.618-1.155-.817-2.351.048-.075.1-.147.143-.223s.084-.131.123-.2c.3-.487.558-.993.825-1.5.115-.215.231-.435.351-.65v0a.188.188,0,0,1,0-.123.214.214,0,0,1,.02-.044.269.269,0,0,1,.087-.071.99.99,0,0,0,.164-.239c1.973-2.643,3.563-3.025,5.954-1.431,1.9,1.873,1.487,4.224-1.156,5.842m7.684,25.4c-1.068.969-2.263.749-2.595-.662-.661-2.845-1.614-5.826,1.081-8.273.7-.821,1.283-2.077,2.571-.682l.151.076c.091.072.183.139.275.207a1.21,1.21,0,0,0,.052.127c.02.044.044.088.063.128.008,0,.016,0,.024,0l.048.012.076.016.047.151a3.855,3.855,0,0,1,1.244,5.277,13.8,13.8,0,0,1-3.037,3.619m8.453,14.522c-1.227.961-2.619,1.339-3.989.187a2.987,2.987,0,0,1-.685-4.088c.123-.231.223-.479.335-.717.079-.112.155-.223.235-.335,0,0,.083-.119.087-.119a5.846,5.846,0,0,1,1.539-1.753,6.1,6.1,0,0,1,.637-.435,5.363,5.363,0,0,1,.669-.347,3.628,3.628,0,0,1,.343-.139c.115-.044.231-.084.347-.116s.219-.063.331-.087a.171.171,0,0,1,.02,0,2.289,2.289,0,0,1,.239-.048.8.8,0,0,1,.1-.016c.052-.008.1-.016.151-.02.08-.012.163-.02.243-.024a3.746,3.746,0,0,1,1.012.052,2.828,2.828,0,0,1,.447.12,2.548,2.548,0,0,1,.415.187c.067.035.131.075.195.115a7.272,7.272,0,0,1-2.666,7.588m8.871-29.921c-1.092.387-3.232-.881-3.953-2.387a6.563,6.563,0,0,1-.633-3.4c.115-1.192-.108-3.587,1.411-4.157,1.291-.486,2.591,1.591,3.682,2.75a5.56,5.56,0,0,1,1.634,2.906,3.864,3.864,0,0,1-2.141,4.288m19.4,2.957c-.039-.295-.119-.606.315-.681l.119-.08c.375-2.041,2.017-2.192,3.591-2.319a3.964,3.964,0,0,1,2.5.247c3.921,1,4.077,1.678,1.311,4.675a6.551,6.551,0,0,1-5.152,2.013c-2.025-.012-3.069-1.626-2.679-3.854m9.744,27.582a6.617,6.617,0,0,1-.729.47c-.08.048-.163.092-.247.136-.043.024-.091.043-.135.067-.127.064-.259.12-.391.171a1.417,1.417,0,0,1-.183.072,5.283,5.283,0,0,1-.653.207c-.1.028-.211.052-.319.075s-.227.048-.343.068c-.131.024-.267.044-.4.06l-.343.036c-.087.007-.179.015-.271.019s-.2.012-.295.016c-.183,0-.371.008-.562.008-.116,0-.235,0-.359,0-.167,0-.343,0-.519,0-.075,0-.151,0-.227,0a2.591,2.591,0,0,1-.307-.016.718.718,0,0,1-.127-.011l-.1-.012a.879.879,0,0,1-.148-.024c-.047-.008-.1-.02-.139-.032a.755.755,0,0,1-.135-.04.737.737,0,0,1-.1-.036,1.025,1.025,0,0,1-.414-.291.3.3,0,0,1-.044-.056.77.77,0,0,1-.111-.2,3.466,3.466,0,0,1,.865-3.2c.988-1.243,1.913-2.543,3.511-3.125,1.8-.654,4.192.032,4.874,1.622.765,1.793-.271,3.017-1.646,4.025" transform="translate(-51.785 -3.385)" fill="#ffa900"/>
    <path id="Tracé_4" data-name="Tracé 4" d="M164,208.857c-3.6-2.555-5.282-6.3-6.11-10.424-.723-3.592-.338-7.262-.1-10.9a5,5,0,0,1,.44-1.517c.424-1.031.758-2.4,2.054-2.406s1.057,1.487,1.432,2.325a18.392,18.392,0,0,0,5.873,7.582c.737.541,1.4,1.178,2.1,1.771,1.864,4.44,5.794,5.916,10.02,6.246,4.883.381,9.819.095,14.732.067a8.783,8.783,0,0,0,3.459-.272c3.3-1.521,6.6-.384,9.418.617a43.671,43.671,0,0,0,16.533,2.937,10.149,10.149,0,0,0,5.559-1.75c4.314-2.93,7.907-6.783,12.393-9.516,2.862-1.744,5.578-3.782,8.625-5.155a5.839,5.839,0,0,0,3.6-3.585c.642-1.985,2.039-2.428,3.988-2.423q29.379.074,58.758.027c.4,0,.8.021,1.2.005.855-.034,1.239.4,1.156,1.215-.3,2.935-.51,6.078-2.1,8.481-2.019,3.04-3.759,6.316-6.52,8.9-3.9,3.648-8.23,6.1-13.679,6.1q-42.876.024-85.751.012c-12.349,0-24.7-.025-37.047.039-1.249.007-2.439-.293-3.71-.242-2.316.094-4.234,1.2-6.322,1.865" transform="translate(-52.496 -60.824)" fill="#ffa900"/>
    <path id="Tracé_5" data-name="Tracé 5" d="M167.266,208.451c2.088-.67,4.006-1.771,6.322-1.865,1.271-.051,2.462.249,3.71.242,12.349-.064,24.7-.038,37.047-.039q42.875,0,85.751-.012c5.449,0,9.775-2.455,13.679-6.1,2.761-2.58,4.5-5.856,6.52-8.9,1.595-2.4,1.8-5.546,2.1-8.481.083-.815-.3-1.249-1.156-1.215-.4.015-.8-.005-1.2-.005q-29.379,0-58.758-.027c-1.949,0-3.347.438-3.988,2.423a5.839,5.839,0,0,1-3.6,3.585c-3.047,1.373-5.763,3.411-8.625,5.155-4.486,2.733-8.078,6.586-12.393,9.516a10.149,10.149,0,0,1-5.559,1.75,43.671,43.671,0,0,1-16.533-2.937c-2.816-1-6.122-2.137-9.418-.617a8.783,8.783,0,0,1-3.459.272c-4.913.027-9.849.313-14.732-.067-4.226-.329-8.156-1.805-10.02-6.246,2.084-.133,3.988.814,6.059.938a70.325,70.325,0,0,0,19.335-1.933,7.491,7.491,0,0,1,4.814.563c3.031,1.314,5.982,3.055,9.156,3.732a49.828,49.828,0,0,0,11.6,1.2c4.6-.111,8.1-2.085,11.324-5.172a76.579,76.579,0,0,1,14.62-10.8c4.061-2.364,8.39-2.16,12.751-2.164q27.876-.028,55.752-.011c1.991,0,3.983.079,5.973.071,2.749-.013,6.836,3.145,7.018,6.1.381,6.205.825,12.386-2.994,17.821s-9.02,8.752-15.744,8.76q-65.016.076-130.034-.05c-5.033,0-9.968-.453-13.97-4.064a4.444,4.444,0,0,1-1.355-1.425" transform="translate(-55.76 -60.418)" fill="#ef7006"/>
    <path id="Tracé_6" data-name="Tracé 6" d="M245.246,161.385a77.578,77.578,0,0,1-11.123-6.122c-4.137-2.69-7.644-6.157-11.669-8.966-2.24-1.567-4.543-3.2-7.377-3.173-5.739.064-10.976-1.754-16.033-4.109a18.647,18.647,0,0,0-12.769-1.287c-3.826.941-4.548,1.809-4.591,5.767-.044,4.436-1.072,8.488-4.834,11.2-3.691,2.662-4.316,6.344-3.929,10.4a9.15,9.15,0,0,0,8.218,7.982c1.263.1,2.491-.131,3.73-.04,4.93.383,9.728-.709,14.539-1.419a12.849,12.849,0,0,1,7.544.841c3.974,1.813,7.923,3.631,12.335,4.26,3.443.49,6.914,1.02,10.051-.729,1.845-1.032,3.22-2.873,4.918-4.212a123.561,123.561,0,0,1,12.924-9.409c-.773-.395-1.339-.729-1.933-.989m-61.238-6.3a1.549,1.549,0,0,1-.283-.043A.673.673,0,0,1,183.6,155c-.047-.016-.091-.032-.131-.048a1.264,1.264,0,0,1-.642-.617,1.687,1.687,0,0,1-.083-.2,1.712,1.712,0,0,1-.068-.243c-.012-.052-.02-.107-.031-.163,0-.04-.012-.084-.016-.127a.737.737,0,0,1-.012-.132c-.008-.119-.012-.243-.008-.371a2.149,2.149,0,0,1,.012-.486.737.737,0,0,1,.02-.1.5.5,0,0,1,.027-.1.007.007,0,0,1,0-.012,1.112,1.112,0,0,1,.144-.3.685.685,0,0,1,.059-.084.853.853,0,0,1,.143-.147,1.094,1.094,0,0,1,.12-.084,1.143,1.143,0,0,1,.151-.075,1.348,1.348,0,0,1,.255-.076.03.03,0,0,1,.02,0,1.812,1.812,0,0,1,.422-.016,1.792,1.792,0,0,1,1.618,1.9,1.387,1.387,0,0,1-1.59,1.57m5.129-4.674c-1.849-.084-3.65-1.733-3.655-3.344,0-1.574,1.658-2.921,3.643-2.953a3.429,3.429,0,0,1,3.029,3.372,3.633,3.633,0,0,1-3.017,2.925" transform="translate(-57.612 -45.719)" fill="#3e7824"/>
    <path id="Tracé_7" data-name="Tracé 7" d="M184.672,138.09l.623-.127a4.884,4.884,0,0,0,2.553-.673l1.421-.109.38-.023.823-.014.185.065.186-.061,2.692.128a2.177,2.177,0,0,0,1.691.3l.774.133.827.262c5.81,2.991,11.792,5.278,18.489,5.276,2.736,0,5.016,1.574,7.167,3.141,4.435,3.233,8.448,7.021,13.1,9.966-.13.222-.2.546-.4.651a50.053,50.053,0,0,0-10.753,8.377,16.551,16.551,0,0,1-12.294,4.91c-5.8-.048-11.141-1.943-16.326-4.306-1.789-.816-3.545-1.561-5.522-1.212-5.518.976-11.064,1.743-16.623,2.43a10.42,10.42,0,0,1,2.695-11.889c2.581-2.162,4.852-4.516,4.9-8.194.687-1.657.474-3.389.413-5.107a4.994,4.994,0,0,1,1.625-3.125,2.4,2.4,0,0,0,1.365-.8m7.6,9.483a3.506,3.506,0,0,0-3.051-3.379c-1.959.017-3.655,1.361-3.691,2.927-.039,1.674,1.9,3.452,3.77,3.46a3.7,3.7,0,0,0,2.973-3.008m-9.62,5.72c-.024,1.057.363,1.9,1.465,1.965a1.417,1.417,0,0,0,1.593-1.6,1.809,1.809,0,0,0-1.785-1.949c-.957-.013-1.382.642-1.273,1.582" transform="translate(-57.612 -45.719)" fill="#7caf2e"/>
    <path id="Tracé_8" data-name="Tracé 8" d="M313.308,36.391a86.652,86.652,0,0,0-19.827-18.512A100.743,100.743,0,0,0,262.707,3.911h0l-2.125-.55a3.375,3.375,0,0,1-1-.259l0,0c-.187-.044-.371-.083-.554-.127s-.371-.084-.558-.127c-.371-.084-.741-.171-1.116-.255-.2-.032-.391-.06-.582-.084h0c-1.331-.255-2.67-.514-4.005-.769-.569-.079-.747-.1-1.435-.251h0c-3.543-.423-7.082-1.02-10.645-1.235a122.137,122.137,0,0,0-44.507,5.276,105.071,105.071,0,0,0-19.014,8.441c-16.308,9.612-28.877,22.5-35.676,40.49a57.3,57.3,0,0,0-3.133,12.51,10.56,10.56,0,0,0,.47,4.706c.239.753.706,1.833-.885,1.737h0c-6.81,2.2-11.031,6.815-11.613,13.941a145.816,145.816,0,0,0-.084,18.089c.375,8.485,5.336,13.789,13.689,15.144,1.077.171,1.563.431,1,1.63a16.26,16.26,0,0,0-1.291,7.568c.107,3.244.088,6.492.123,9.74a46.146,46.146,0,0,0,4.065,8.732c5.58,8.373,13.419,12.7,23.442,12.733,28.219.08,56.44.028,84.66.04,4.368,0,8.744.064,13.1.1h.008c11-.023,22.014-.1,33.026-.047a26.947,26.947,0,0,0,16.635-5.822,25.315,25.315,0,0,0,10.49-18.129c.518-4.922,1.12-9.992-1.1-14.686-.785-1.666-.391-1.717,1.068-1.9a14.691,14.691,0,0,0,12.956-13.5c.311-5.555.127-11.139.175-16.706a24.421,24.421,0,0,0-.765-7.09,16.534,16.534,0,0,0-10.784-9.637c-1.032-.331-1.737-.761-1.275-1.941,1.235-3.161.522-6.313-.183-9.39A67.089,67.089,0,0,0,318.5,44.557a46.7,46.7,0,0,1-2.69-4.69Zm-177.174,71.07c-2.061.056-2.774-1-2.79-2.73-.047-5.838-.083-11.681.012-17.515.052-3.177,3.878-6.743,7.082-6.89,4.965-.235,9.963-.419,14.9-.283,10.346.275,20.692-.016,31.033.231,1.933.048,3.543.969,5.213,1.686,5.44,2.331,10.828,4.778,16.232,7.2,9.784,4.384,19.524,8.864,29.363,13.119,3.376,1.455,6.879,2.631,10.214,4.2.227.108.526.152.487.586-.451.6-1.168.335-1.778.339-4.579.028-9.158-.043-13.733.052-2.663.06-4.723-1.219-6.962-2.371-6.15-3.173-10.633-8.592-16.575-12.007a21.369,21.369,0,0,0-7.58-2.575c-5.32-.805-10.6-1.547-15.451-4.336-4.407-2.535-9.437-2.352-14.327-1.658-2.256.323-4.631.331-6.7,1.574-3.587,2.156-5.838,5.268-5.89,9.453a12.112,12.112,0,0,1-5.137,10.282,6.816,6.816,0,0,1-4.468,1.642c-4.38-.1-8.76-.119-13.139,0m70.636-26.8c.5-.729,1.147-.431,1.685-.431q34.738-.024,69.476-.024c1.192,0,2.383-.1,3.575-.155.375-.02.837-.291,1.064.167.211.423-.179.745-.443,1.017a4.372,4.372,0,0,1-2.148,1.335c-3.32,2.475-6.89,4.559-10.4,6.739-4.938,3.069-9.852,6.19-14.682,9.426a6.2,6.2,0,0,1-6.48.558q-19.542-8.633-39.1-17.225a1.37,1.37,0,0,1-.3-.251c-.937-.031-1.451-.8-2.243-1.155m24.8,36a123.562,123.562,0,0,0-12.924,9.409c-1.7,1.339-3.073,3.181-4.918,4.212-3.137,1.75-6.608,1.22-10.051.729-4.412-.629-8.362-2.447-12.335-4.26a12.851,12.851,0,0,0-7.544-.841c-4.81.709-9.608,1.8-14.538,1.419-1.239-.091-2.467.14-3.731.04a9.15,9.15,0,0,1-8.218-7.982c-.387-4.057.239-7.74,3.93-10.4,3.762-2.714,4.79-6.767,4.834-11.2.044-3.957.765-4.826,4.591-5.766A18.643,18.643,0,0,1,183.431,93.3c5.058,2.355,10.294,4.172,16.033,4.108,2.833-.032,5.136,1.606,7.376,3.173,4.025,2.809,7.532,6.276,11.669,8.967a77.615,77.615,0,0,0,11.124,6.121c.593.259,1.159.594,1.933.989m83.042,28.156c-3.815,5.428-9.019,8.752-15.742,8.76q-65.016.077-130.036-.048c-5.033,0-9.967-.454-13.968-4.065a4.434,4.434,0,0,1-1.355-1.423c-3.6-2.559-5.28-6.3-6.109-10.426-.726-3.591-.339-7.261-.1-10.9a4.981,4.981,0,0,1,.443-1.519c.422-1.032.757-2.4,2.052-2.407s1.057,1.487,1.431,2.327a18.366,18.366,0,0,0,5.874,7.58c.737.542,1.4,1.18,2.1,1.769,2.085-.131,3.989.817,6.058.941a70.4,70.4,0,0,0,19.336-1.933,7.488,7.488,0,0,1,4.814.562c3.033,1.315,5.982,3.057,9.158,3.734a50.171,50.171,0,0,0,11.6,1.2c4.6-.112,8.106-2.089,11.322-5.173A76.5,76.5,0,0,1,236.109,123c4.061-2.363,8.389-2.16,12.749-2.164q27.882-.03,55.754-.012c1.989,0,3.981.08,5.974.072,2.746-.012,6.835,3.144,7.014,6.1.383,6.205.825,12.386-2.992,17.819m5.256-49.2a11.851,11.851,0,0,1-11.773,11.78c-8.29.06-16.583.016-24.876.016v.016H258.171c-.733,0-1.737.08-1.953-.621-.259-.833.785-1.053,1.375-1.431q13.062-8.352,26.124-16.7c4.2-2.678,8.4-5.348,12.653-7.939,1.1-.673,2.491-.47,3.727-.486,5.77-.076,11.546.032,17.312-.032,1.821-.02,2.5.685,2.479,2.463-.06,4.312.012,8.624-.024,12.936M315.8,71.844a36.785,36.785,0,0,1-3.977.151q-53.174.425-106.343.159c-9.557-.047-19.11-.016-28.666.028-8.692.04-17.384-.147-26.08-.247-.645-.007-1.339.144-1.909-.339l-.064-.008c-.857-.012-1.761.136-2.391-.677a2.788,2.788,0,0,1-1.686-2.841,13.592,13.592,0,0,1,.921-5.169l-.051-.088s.031-.043.051-.067l.008-.012-.024-.191a2.244,2.244,0,0,1,0-.283c0-.023,0-.051,0-.079,0-.044.012-.088.02-.131a.515.515,0,0,1,.016-.076,1.34,1.34,0,0,1,.04-.135c.012-.036.024-.064.036-.1a1.432,1.432,0,0,1,.147-.247.879.879,0,0,1,.056-.072.8.8,0,0,1,.083-.091,56.888,56.888,0,0,1,9.976-20.768,74.917,74.917,0,0,1,7.847-8.935A74.106,74.106,0,0,1,177.454,21.2a4.726,4.726,0,0,1,2.471-1.487l.091-.043a1.639,1.639,0,0,1,1.471-.821l.044-.02a1.806,1.806,0,0,1,1.53-.809L183.1,18a1.743,1.743,0,0,1,1.543-.805l.036-.008a1.815,1.815,0,0,1,1.554-.781l.052-.016a1.7,1.7,0,0,1,1.562-.753l.052-.016a7.122,7.122,0,0,1,3.59-1.543.146.146,0,0,1,.231-.079,19.125,19.125,0,0,1,6.492-2.391l0,.008c1.857-1.244,4.069-1.5,6.138-2.037a114.239,114.239,0,0,1,40.618-2.766,148.387,148.387,0,0,1,14.857,2.619,2.219,2.219,0,0,1,1.407.669l.015,0c.873.02,1.778-.044,2.415.745a3.187,3.187,0,0,1,2.511.765,73.314,73.314,0,0,1,21.142,9.923,4.278,4.278,0,0,0,.685.331,1.333,1.333,0,0,1,1.208.885l.023,0a36.964,36.964,0,0,1,8.338,5.934A69.566,69.566,0,0,1,312.148,45.84c.379.658.757,1.319,1.124,1.989.107.2.211.387.315.582.235.435.463.873.677,1.315.108.211.211.427.311.642.107.231.215.466.319.7.087.2.175.4.255.605s.167.407.243.614.159.411.227.618c.151.414.287.833.4,1.259.059.211.115.426.171.641s.1.435.151.65c.123.1.239.2.359.295l.123.072c.7.355.622,1.008.634,1.63l.024.067a2.951,2.951,0,0,1,.773,2.324l.02.067a18.349,18.349,0,0,1,1.825,7.835c.116,2.34-1.673,3.794-4.3,4.1" transform="translate(-41.999 0)" fill="#170a0a"/>
    <path id="Tracé_9" data-name="Tracé 9" d="M154.957,74.282c.015,1.784.9,2.281,2.657,2.245,5.547-.113,11.1-.048,16.648-.034a8.566,8.566,0,0,1,2.937.267c1.1.388,1.4-.319,1.379-1.263,1.513-.183,2.121-1.471,2.985-2.447.305,3.438.305,3.436,4.08,3.436q58.662,0,117.325.033a33.473,33.473,0,0,0,7.242-.977c2.554-.563,3.374-3.072,3.327-5.465a63.176,63.176,0,0,0-.859-7.777c-.933-6.418-4.667-11.573-7.141-17.273a41.707,41.707,0,0,0-6.394-9.5c-.336-.41-.768-.765-.567-1.387a36.876,36.876,0,0,1,8.339,5.935A69.45,69.45,0,0,1,321.5,57.22a33.233,33.233,0,0,1,4.2,9.612c-.013.263.1.373.363.294l.121.075c-.261.727-.163,1.315.635,1.627l.021.068c-.009.864-.317,1.827.775,2.324l.02.067c-.073,2.147.773,4.135,1.083,6.22a3.933,3.933,0,0,1-3.05,4.83,23.575,23.575,0,0,1-6.258.529q-70.666.039-141.331.033c-6.632,0-13.263.051-19.9.078l-.063-.007a2.25,2.25,0,0,0-2.392-.68,2.787,2.787,0,0,1-1.688-2.841,13.62,13.62,0,0,1,.921-5.168" transform="translate(-51.349 -11.38)" fill="#ef7006"/>
    <path id="Tracé_10" data-name="Tracé 10" d="M308.943,151.828l31.147-.1v-.019c9.57,0,19.14.051,28.7-.019a13.675,13.675,0,0,0,13.585-13.593c.041-4.976-.042-9.952.027-14.927.027-2.051-.759-2.865-2.861-2.842-6.654.074-13.317-.051-19.976.037-1.425.018-3.031-.217-4.3.561-4.906,2.989-9.758,6.07-14.6,9.16-10.058,6.411-21.679,10.1-31.727,16.522l-8.733.879-16.095.09,5.868,3.992,2.273.5Zm23.16-5.456c-1.039.069-1.32-.469-1.214-1.4.078-.579-.253-1.517.823-1.453a1.772,1.772,0,0,1,1.591,1.61c.147.827-.377,1.186-1.2,1.241" transform="translate(-94.713 -40.112)" fill="#7a0b0e"/>
    <path id="Tracé_11" data-name="Tracé 11" d="M384.992,122.788c.023-1.777-.658-2.483-2.479-2.463-5.766.063-11.542-.044-17.312.031-1.235.016-2.627-.187-3.727.487-4.252,2.591-8.457,5.26-12.653,7.938q-13.073,8.334-26.124,16.7c-.589.379-1.634.6-1.375,1.431.215.7,1.219.622,1.953.622h25.044v-.016c8.294,0,16.587.043,24.876-.016a11.852,11.852,0,0,0,11.773-11.781c.035-4.312-.036-8.624.024-12.936M341.4,142.9c-.9.06-1.144-.407-1.052-1.211.067-.5-.219-1.315.713-1.259a1.534,1.534,0,0,1,1.379,1.395c.128.717-.327,1.028-1.04,1.076" transform="translate(-107.103 -40.112)" fill="#ce0c17"/>
    <path id="Tracé_12" data-name="Tracé 12" d="M251.046,146.484c-3.335-1.575-6.838-2.75-10.214-4.2-9.84-4.257-19.58-8.736-29.363-13.119-5.4-2.419-10.792-4.866-16.232-7.2-1.67-.717-3.28-1.638-5.213-1.686-10.342-.247-20.687.044-31.033-.231-4.934-.135-9.931.048-14.9.283-3.2.147-7.03,3.715-7.082,6.89-.1,5.834-.059,11.677-.011,17.515.015,1.73.729,2.786,2.789,2.73,4.38-.119,8.76-.1,13.139,0a6.81,6.81,0,0,0,4.468-1.642,12.11,12.11,0,0,0,5.137-10.282c.051-4.185,2.3-7.3,5.89-9.454,2.072-1.243,4.447-1.251,6.7-1.574,4.89-.693,9.92-.877,14.327,1.658,4.85,2.79,10.131,3.531,15.451,4.336a21.369,21.369,0,0,1,7.58,2.575c5.942,3.415,10.426,8.836,16.575,12.007,2.239,1.152,4.3,2.431,6.962,2.371,4.575-.1,9.154-.023,13.733-.051.61,0,1.327.263,1.778-.339.04-.435-.259-.479-.487-.586M157.01,127.43c-2.248.1-4.507-.04-6.759.02a5.919,5.919,0,0,0-6.118,5.982,37.623,37.623,0,0,0,0,4.176,2.178,2.178,0,0,1-2.227,2.643c-1.774.151-2.308-.977-2.451-2.447-.821-8.56,3.6-15.2,12.478-14.873.53.02,1.06,0,1.59,0v-.012c1.128,0,2.256-.016,3.384,0,1.443.02,2.335.534,2.423,2.208.1,1.777-.992,2.231-2.319,2.3" transform="translate(-45.654 -40.003)" fill="#ce0c17"/>
    <path id="Tracé_13" data-name="Tracé 13" d="M320.378,121.458q-33.029.012-66.056,0a12.036,12.036,0,0,1-2.766-.151c-.976-.231-.984.291-1.024.929a1.367,1.367,0,0,0,.3.251q19.548,8.614,39.1,17.225a6.206,6.206,0,0,0,6.48-.558c4.83-3.237,9.744-6.357,14.681-9.426,3.511-2.18,7.082-4.264,10.4-6.739,1.252-1.7.008-1.531-1.119-1.531M290.15,133.407a2.513,2.513,0,0,1-2.12,2.22c-1.077.139-1.069-.965-1.069-1.73,0-.107,0-.215.008-.319,0-.052,0-.1.008-.155a2.165,2.165,0,0,1,.024-.231,2.334,2.334,0,0,1,.1-.43,1.055,1.055,0,0,1,.067-.168.65.65,0,0,1,.064-.127,1.037,1.037,0,0,1,.179-.231.915.915,0,0,1,.123-.111,1.233,1.233,0,0,1,.148-.091,1.027,1.027,0,0,1,.167-.072.923.923,0,0,1,.195-.056.972.972,0,0,1,.223-.036,1.605,1.605,0,0,1,.247-.016,1.728,1.728,0,0,1,.435.036,1.294,1.294,0,0,1,.307.084,1.343,1.343,0,0,1,.263.131,1.49,1.49,0,0,1,.231.187.5.5,0,0,1,.088.1,1,1,0,0,1,.131.187.427.427,0,0,1,.04.075.908.908,0,0,1,.059.131c.016.04.028.08.04.12a1.459,1.459,0,0,1,.044.231c0,.043.008.091.008.139s0,.087-.008.135" transform="translate(-83.518 -40.421)" fill="#ffa900"/>
    <path id="Tracé_14" data-name="Tracé 14" d="M160.25,101.554c6.632-.027,13.263-.077,19.894-.078q70.666-.016,141.331-.033a23.55,23.55,0,0,0,6.258-.529,3.934,3.934,0,0,0,3.05-4.83c-.311-2.085-1.157-4.072-1.084-6.219a18.383,18.383,0,0,1,1.826,7.836c.116,2.339-1.676,3.8-4.3,4.1a36.783,36.783,0,0,1-3.978.151q-53.172.425-106.343.157c-9.556-.047-19.109-.015-28.665.029-8.693.039-17.387-.146-26.08-.247-.646-.007-1.34.146-1.909-.339" transform="translate(-53.421 -29.958)" fill="#ce0c17"/>
    <path id="Tracé_15" data-name="Tracé 15" d="M320.375,122.552c1.252-1.7.007-1.532-1.118-1.531q-33.03.01-66.058,0a12.143,12.143,0,0,1-2.765-.149c-.978-.232-.985.289-1.025.927-.936-.032-1.45-.8-2.243-1.155.5-.729,1.149-.431,1.687-.431q34.737-.024,69.474-.024c1.192,0,2.384-.095,3.575-.156.375-.019.835-.289,1.063.167.211.424-.18.747-.443,1.017a4.363,4.363,0,0,1-2.147,1.338" transform="translate(-82.396 -39.981)" fill="#ef7006"/>
    <path id="Tracé_16" data-name="Tracé 16" d="M297.342,13.168c-2.293.308-4.427-.641-6.58-1.077-2.115-.427-4.274-.863-6.383-1.168a115.788,115.788,0,0,0-24.731-.757c-3.725.263-7.638.277-11.228,1.5-3.911,1.327-8.1,1.422-11.935,3.012a5.907,5.907,0,0,1-2.16.009c1.857-1.241,4.067-1.5,6.138-2.034a114.209,114.209,0,0,1,40.615-2.767A148.715,148.715,0,0,1,295.936,12.5a2.224,2.224,0,0,1,1.406.667" transform="translate(-78.115 -3.069)" fill="#ef7006"/>
    <path id="Tracé_17" data-name="Tracé 17" d="M231.083,17.411a12.64,12.64,0,0,1-6.49,2.391,19.157,19.157,0,0,1,6.49-2.391" transform="translate(-74.871 -5.804)" fill="#ef7006"/>
    <path id="Tracé_18" data-name="Tracé 18" d="M222.451,21.115a5.385,5.385,0,0,1-3.592,1.544,7.128,7.128,0,0,1,3.592-1.544" transform="translate(-72.959 -7.039)" fill="#ef7006"/>
    <path id="Tracé_19" data-name="Tracé 19" d="M205.659,29.566c-.711.684-1.219,1.7-2.471,1.486a4.729,4.729,0,0,1,2.471-1.486" transform="translate(-67.735 -9.856)" fill="#ef7006"/>
    <path id="Tracé_20" data-name="Tracé 20" d="M331.3,15.9c-.888.019-1.871.343-2.416-.747.875.023,1.779-.045,2.416.747" transform="translate(-109.636 -5.052)" fill="#ef7006"/>
    <path id="Tracé_21" data-name="Tracé 21" d="M413.995,88.6c-1.093-.5-.785-1.46-.775-2.324a2.939,2.939,0,0,1,.775,2.324" transform="translate(-137.736 -28.762)" fill="#ce0c17"/>
    <path id="Tracé_22" data-name="Tracé 22" d="M335.012,17.038a2.788,2.788,0,0,1-2.512-.767,3.191,3.191,0,0,1,2.512.767" transform="translate(-110.843 -5.422)" fill="#ef7006"/>
    <path id="Tracé_23" data-name="Tracé 23" d="M156.568,106.32a2.25,2.25,0,0,1,2.392.68c-.858-.014-1.763.137-2.392-.68" transform="translate(-52.194 -35.41)" fill="#ce0c17"/>
    <path id="Tracé_24" data-name="Tracé 24" d="M412.83,85.362c-.8-.313-.9-.9-.635-1.627.7.353.621,1.009.635,1.627" transform="translate(-137.367 -27.914)" fill="#ce0c17"/>
    <path id="Tracé_25" data-name="Tracé 25" d="M210.837,27.021c-.209.839-.834.893-1.531.811a1.814,1.814,0,0,1,1.531-.811" transform="translate(-69.775 -9.008)" fill="#ef7006"/>
    <path id="Tracé_26" data-name="Tracé 26" d="M213.2,25.793c-.193.883-.825.927-1.543.805a1.732,1.732,0,0,1,1.543-.805" transform="translate(-70.559 -8.598)" fill="#ef7006"/>
    <path id="Tracé_27" data-name="Tracé 27" d="M215.584,24.608c-.207.879-.829.933-1.554.782a1.816,1.816,0,0,1,1.554-.782" transform="translate(-71.35 -8.203)" fill="#ef7006"/>
    <path id="Tracé_28" data-name="Tracé 28" d="M218,23.452c-.242.829-.843.916-1.563.755A1.705,1.705,0,0,1,218,23.452" transform="translate(-72.152 -7.818)" fill="#ef7006"/>
    <path id="Tracé_29" data-name="Tracé 29" d="M208.506,28.265c-.223.751-.8.865-1.47.823a1.635,1.635,0,0,1,1.47-.823" transform="translate(-69.018 -9.422)" fill="#ef7006"/>
    <path id="Tracé_30" data-name="Tracé 30" d="M370.219,33.691a.9.9,0,0,1-1.209-.885,1.33,1.33,0,0,1,1.209.885" transform="translate(-123.014 -10.936)" fill="#ef7006"/>
    <path id="Tracé_31" data-name="Tracé 31" d="M155.79,92c.1.527.192,1.053-.373,1.4a1.5,1.5,0,0,1,.373-1.4" transform="translate(-51.799 -30.669)" fill="#ef7006"/>
    <path id="Tracé_32" data-name="Tracé 32" d="M411.9,83.475c-.265.079-.377-.031-.363-.294l.363.294" transform="translate(-137.189 -27.729)" fill="#ce0c17"/>
    <path id="Tracé_33" data-name="Tracé 33" d="M170.343,62.455c-.106-1.614.818-2.671,1.67-3.749a94.7,94.7,0,0,1,17.063-16.989c1.877-1.421,3.476-1.465,4.816.035,1.359,1.519,1.239,3.222-.7,4.767-4.175,3.331-8.426,6.574-11.959,10.607-2.055,2.346-3.892,4.881-5.892,7.276-.639.765-1.352,1.779-2.605,1.195-1.35-.629-2.547-1.458-2.4-3.141" transform="translate(-56.781 -13.547)" fill="#fffffe"/>
    <path id="Tracé_34" data-name="Tracé 34" d="M229.9,25.266c-.092,1.863-1.455,2.572-2.665,3.055a113.78,113.78,0,0,0-14.974,7.192c-1.607.931-2.676-.224-3.4-1.429-.638-1.057-1.409-2.251.209-3.369,2.7-1.868,5.742-3.081,8.6-4.64,2.681-1.463,5.486-2.7,8.248-4.009,1.639-.779,2.647-.373,3.321,1.307.267.669.478,1.36.663,1.893" transform="translate(-69.374 -7.229)" fill="#fffffe"/>
    <path id="Tracé_35" data-name="Tracé 35" d="M293.921,53.14c-.61.181-1.8.025-.51,1.161.327.287-.338.9-.707,1.549-.457-.8-.371-1.837-1.354-2.027.7-.823,1.284-2.079,2.571-.683" transform="translate(-97.125 -17.506)" fill="#ce0c17"/>
    <path id="Tracé_36" data-name="Tracé 36" d="M356.376,90.845c-.991-.037-2.377.155-2.73-.732a3.47,3.47,0,0,1,.864-3.2c.988-1.246,1.916-2.544,3.511-3.123,1.8-.655,4.193.031,4.873,1.621.766,1.793-.267,3.017-1.645,4.026a7.581,7.581,0,0,1-4.873,1.407" transform="translate(-117.846 -27.85)" fill="#ef7006"/>
    <path id="Tracé_37" data-name="Tracé 37" d="M260.091,52.9c-2.113-.389-4.5-.511-6.134-2.5-.935-1.138-1.655-2.556-.688-3.8a3.463,3.463,0,0,1,4.146-1.079,9.057,9.057,0,0,1,5.038,5.35c.541,1.373-.2,2-2.363,2.029" transform="translate(-84.277 -15.081)" fill="#ef7006"/>
    <path id="Tracé_38" data-name="Tracé 38" d="M314.515,35.775c.117-1.191-.105-3.583,1.411-4.154,1.291-.486,2.593,1.591,3.685,2.751a5.535,5.535,0,0,1,1.631,2.9,3.857,3.857,0,0,1-2.139,4.287c-1.092.389-3.232-.879-3.953-2.387a6.623,6.623,0,0,1-.635-3.4" transform="translate(-104.844 -10.517)" fill="#ef7006"/>
    <path id="Tracé_39" data-name="Tracé 39" d="M295.553,55.967a3.854,3.854,0,0,1,1.242,5.275,13.716,13.716,0,0,1-3.035,3.619c-1.069.972-2.265.753-2.594-.661-.661-2.843-1.616-5.826,1.078-8.27.983.19.9,1.227,1.354,2.027.369-.653,1.034-1.263.707-1.549-1.293-1.136-.1-.981.51-1.161l.151.077.276.207a2.261,2.261,0,0,0,.113.253c-.005.135.061.2.2.185" transform="translate(-96.824 -18.417)" fill="#ef7006"/>
    <path id="Tracé_40" data-name="Tracé 40" d="M194.019,90.181c-.864.976-1.472,2.264-2.985,2.447-2.55-.935-3.721-2.895-3.025-5.492a19.662,19.662,0,0,1,1.8-4.364c.8-1.445,1.847-.749,2.494.171,1.519,2.159,2.5,4.506,1.713,7.238" transform="translate(-62.609 -27.316)" fill="#ef7006"/>
    <path id="Tracé_41" data-name="Tracé 41" d="M255.4,71.2c2.782,1.417,3.547,3.94,3.616,6.776.041,1.714-1.457,2.809-2.727,1.815-1.873-1.463-4.285-2.483-5.164-5,.51-1.993,2.675-2.359,3.759-3.793.03-.039.338.132.517.205" transform="translate(-83.716 -23.664)" fill="#ef7006"/>
    <path id="Tracé_42" data-name="Tracé 42" d="M255.276,70.784c-.179-.073-.487-.245-.517-.205-1.085,1.434-3.249,1.8-3.759,3.793-.823-2.453.446-4.636,2.7-4.628.732,0,1.5.019,1.573,1.04" transform="translate(-83.59 -23.25)" fill="#ef7006"/>
    <path id="Tracé_43" data-name="Tracé 43" d="M356.984,46.759c3.921,1,4.077,1.675,1.311,4.672a6.544,6.544,0,0,1-5.153,2.014c-2.024-.011-3.069-1.627-2.679-3.855a.6.6,0,0,0,.314-.679l.119-.083a1.1,1.1,0,0,1,1.374.257c.749.779,1.753.421,1.79-.478.091-2.247,1.653-1.723,2.924-1.849" transform="translate(-116.804 -15.588)" fill="#ef7006"/>
    <path id="Tracé_44" data-name="Tracé 44" d="M357.241,46.595c-1.271.126-2.833-.4-2.924,1.849-.037.9-1.041,1.257-1.79.478a1.1,1.1,0,0,0-1.374-.257c.376-2.04,2.021-2.189,3.592-2.317a3.967,3.967,0,0,1,2.5.247" transform="translate(-117.061 -15.424)" fill="#ef7006"/>
    <path id="Tracé_45" data-name="Tracé 45" d="M308.168,79.989a7.269,7.269,0,0,1-2.665,7.588c-1.228.96-2.617,1.337-3.988.187a2.989,2.989,0,0,1-.689-4.089c.124-.233.225-.479.335-.719l.237-.334.089-.121c.5.157,1.009.281,1.492.475.741.3,1.079.057,1.251-.707.517-2.293,1.372-2.771,3.938-2.279" transform="translate(-100.115 -26.607)" fill="#ef7006"/>
    <path id="Tracé_46" data-name="Tracé 46" d="M308.752,79.832c-2.566-.492-3.421-.014-3.938,2.279-.172.763-.511,1-1.251.707-.483-.194-.994-.318-1.492-.475,1.413-2.5,4.778-3.763,6.681-2.511" transform="translate(-100.699 -26.45)" fill="#ef7006"/>
    <path id="Tracé_47" data-name="Tracé 47" d="M281.564,22.758c1.9,1.872,1.488,4.221-1.155,5.842a7.7,7.7,0,0,1-5.691.992c-1.371-.281-1.621-1.157-.82-2.352.546-.814.966-1.712,1.442-2.571l.147-.082-.041-.161a1.04,1.04,0,0,0,.165-.238c.554-.071,1.111-.388,1.521.385.327.616,1.079.619,1.124-.073.167-2.517,1.919-1.725,3.309-1.741" transform="translate(-91.156 -7.551)" fill="#ef7006"/>
    <path id="Tracé_48" data-name="Tracé 48" d="M282.648,22.337c-1.391.016-3.143-.775-3.309,1.741-.045.692-.8.689-1.124.073-.409-.773-.967-.455-1.521-.385,1.971-2.643,3.56-3.025,5.954-1.43" transform="translate(-92.239 -7.131)" fill="#ef7006"/>
    <path id="Tracé_49" data-name="Tracé 49" d="M217.247,69.163l2.079,1.029c.485.434.977.862,1.456,1.3.363.334.7.741.086,1.1-2.353,1.363-4.578,3.194-7.616,2.27a3.686,3.686,0,0,0-1.776-1.169l-.079-.105c-.006-.955-1.451-2.329-.183-2.733,1.97-.627,3.657-2.531,6.033-1.694" transform="translate(-70.237 -22.987)" fill="#ef7006"/>
    <path id="Tracé_50" data-name="Tracé 50" d="M214.39,75.484c3.038.924,5.263-.907,7.616-2.27.619-.359.277-.765-.086-1.1-.479-.441-.971-.869-1.457-1.3,1.373.238,3.027.116,2.951,2.245-.049,1.377-2.194,3.309-3.555,3.086a7.28,7.28,0,0,0-2.668.4c-1.195.227-2.33.284-3.086-.931q.144-.06.284-.128" transform="translate(-71.375 -23.606)" fill="#ef7006"/>
    <path id="Tracé_51" data-name="Tracé 51" d="M216.837,68.965c-2.377-.837-4.063,1.067-6.033,1.694-1.269.4.177,1.777.183,2.733-1.966-1.471-2.033-2.378-.183-3.777s3.868-1.873,6.033-.649" transform="translate(-69.827 -22.755)" fill="#ef7006"/>
    <path id="Tracé_52" data-name="Tracé 52" d="M213.643,77.286q-.14.068-.284.128c-.623-.289-1.531-.251-1.493-1.3a3.691,3.691,0,0,1,1.777,1.17" transform="translate(-70.628 -25.374)" fill="#ef7006"/>
    <path id="Tracé_53" data-name="Tracé 53" d="M354.583,89.052c-.991-.038-2.377.155-2.73-.732a3.472,3.472,0,0,1,.863-3.2c.988-1.245,1.916-2.544,3.511-3.123,1.8-.655,4.194.031,4.873,1.622.766,1.793-.267,3.017-1.645,4.026a7.59,7.59,0,0,1-4.873,1.407" transform="translate(-117.249 -27.252)" fill="#170a0a"/>
    <path id="Tracé_54" data-name="Tracé 54" d="M258.3,51.11c-2.113-.389-4.5-.511-6.134-2.5-.935-1.138-1.655-2.556-.688-3.8a3.463,3.463,0,0,1,4.146-1.079,9.057,9.057,0,0,1,5.038,5.35c.541,1.373-.2,2-2.363,2.029" transform="translate(-83.679 -14.483)" fill="#170a0a"/>
    <path id="Tracé_55" data-name="Tracé 55" d="M312.721,33.981c.117-1.19-.105-3.583,1.411-4.154,1.291-.486,2.593,1.591,3.685,2.752a5.536,5.536,0,0,1,1.631,2.9,3.856,3.856,0,0,1-2.139,4.287c-1.092.389-3.233-.879-3.953-2.386a6.627,6.627,0,0,1-.635-3.4" transform="translate(-104.246 -9.919)" fill="#170a0a"/>
    <path id="Tracé_56" data-name="Tracé 56" d="M293.759,54.174A3.854,3.854,0,0,1,295,59.449a13.716,13.716,0,0,1-3.035,3.619c-1.069.972-2.265.753-2.594-.661-.661-2.843-1.616-5.826,1.078-8.27.983.19.9,1.227,1.354,2.027.369-.653,1.034-1.263.707-1.549-1.293-1.136-.1-.981.51-1.161l.151.077.276.207a2.2,2.2,0,0,0,.113.252c-.005.135.061.2.2.185" transform="translate(-96.226 -17.819)" fill="#170a0a"/>
    <path id="Tracé_57" data-name="Tracé 57" d="M192.226,88.388c-.864.976-1.472,2.264-2.985,2.447-2.55-.935-3.721-2.895-3.025-5.492a19.662,19.662,0,0,1,1.8-4.364c.8-1.445,1.847-.749,2.494.171,1.519,2.159,2.5,4.506,1.713,7.238" transform="translate(-62.011 -26.719)" fill="#170a0a"/>
    <path id="Tracé_58" data-name="Tracé 58" d="M253.609,69.405c2.782,1.417,3.547,3.94,3.616,6.776.041,1.714-1.457,2.809-2.727,1.815-1.873-1.463-4.285-2.483-5.164-5,.51-1.993,2.675-2.359,3.759-3.793.03-.039.338.132.517.205" transform="translate(-83.118 -23.067)" fill="#170a0a"/>
    <path id="Tracé_59" data-name="Tracé 59" d="M253.483,68.991c-.179-.073-.487-.245-.517-.205-1.085,1.434-3.249,1.8-3.759,3.793-.823-2.453.446-4.636,2.7-4.628.732,0,1.5.019,1.573,1.04" transform="translate(-82.992 -22.652)" fill="#ce0c17"/>
    <path id="Tracé_60" data-name="Tracé 60" d="M355.191,44.966c3.92,1,4.076,1.675,1.311,4.672a6.544,6.544,0,0,1-5.153,2.014c-2.024-.011-3.069-1.627-2.679-3.855a.6.6,0,0,0,.314-.679l.119-.083a1.1,1.1,0,0,1,1.374.257c.749.779,1.753.421,1.79-.478.091-2.247,1.653-1.723,2.924-1.849" transform="translate(-116.207 -14.99)" fill="#170a0a"/>
    <path id="Tracé_61" data-name="Tracé 61" d="M355.448,44.8c-1.271.126-2.833-.4-2.924,1.849-.037.9-1.041,1.257-1.79.478a1.1,1.1,0,0,0-1.374-.257c.376-2.04,2.021-2.189,3.592-2.317a3.967,3.967,0,0,1,2.5.247" transform="translate(-116.463 -14.826)" fill="#ce0c17"/>
    <path id="Tracé_62" data-name="Tracé 62" d="M306.375,78.2a7.269,7.269,0,0,1-2.665,7.588c-1.228.96-2.617,1.337-3.988.187a2.989,2.989,0,0,1-.689-4.089c.124-.233.225-.479.335-.719l.237-.334.089-.121c.5.157,1.009.281,1.492.475.741.3,1.079.057,1.251-.707.517-2.293,1.372-2.771,3.938-2.279" transform="translate(-99.517 -26.009)" fill="#170a0a"/>
    <path id="Tracé_63" data-name="Tracé 63" d="M306.959,78.039c-2.566-.492-3.421-.014-3.938,2.279-.172.763-.511,1-1.251.707-.483-.194-.994-.318-1.492-.475,1.413-2.5,4.778-3.763,6.681-2.511" transform="translate(-100.101 -25.852)" fill="#ce0c17"/>
    <path id="Tracé_64" data-name="Tracé 64" d="M279.771,20.965c1.9,1.872,1.488,4.221-1.155,5.842a7.7,7.7,0,0,1-5.69.992c-1.371-.281-1.621-1.157-.82-2.352.546-.814.966-1.712,1.442-2.571l.147-.082-.041-.161a1.064,1.064,0,0,0,.165-.238c.553-.071,1.111-.388,1.521.385.327.616,1.079.619,1.124-.073.167-2.517,1.919-1.725,3.309-1.741" transform="translate(-90.558 -6.954)" fill="#170a0a"/>
    <path id="Tracé_65" data-name="Tracé 65" d="M280.854,20.544c-1.39.016-3.142-.775-3.309,1.741-.045.692-.8.689-1.124.073-.41-.773-.967-.455-1.521-.385,1.971-2.643,3.56-3.025,5.953-1.43" transform="translate(-91.642 -6.533)" fill="#ce0c17"/>
    <path id="Tracé_66" data-name="Tracé 66" d="M215.453,67.369l2.079,1.029c.485.434.977.862,1.456,1.3.363.334.7.741.086,1.1-2.353,1.363-4.578,3.194-7.616,2.27a3.688,3.688,0,0,0-1.777-1.169L209.6,71.8c-.006-.955-1.452-2.329-.183-2.733,1.971-.627,3.657-2.531,6.033-1.694" transform="translate(-69.639 -22.389)" fill="#170a0a"/>
    <path id="Tracé_67" data-name="Tracé 67" d="M212.6,73.69c3.038.925,5.263-.907,7.616-2.27.619-.359.277-.764-.086-1.1-.479-.441-.971-.869-1.457-1.3,1.373.239,3.027.117,2.951,2.246-.049,1.377-2.194,3.309-3.555,3.086a7.252,7.252,0,0,0-2.668.4c-1.195.226-2.33.283-3.086-.931q.144-.06.284-.129" transform="translate(-70.777 -23.008)" fill="#ef7006"/>
    <path id="Tracé_68" data-name="Tracé 68" d="M215.044,67.172c-2.377-.837-4.062,1.067-6.033,1.694-1.269.4.177,1.777.183,2.733-1.966-1.471-2.033-2.378-.183-3.777s3.867-1.873,6.032-.649" transform="translate(-69.229 -22.157)" fill="#ce0c17"/>
    <path id="Tracé_69" data-name="Tracé 69" d="M211.849,75.492q-.14.068-.284.128c-.623-.289-1.531-.251-1.493-1.3a3.692,3.692,0,0,1,1.777,1.17" transform="translate(-70.03 -24.776)" fill="#ce0c17"/>
    <path id="Tracé_70" data-name="Tracé 70" d="M349.008,48.194a.6.6,0,0,1-.314.679c-.041-.293-.119-.6.314-.679" transform="translate(-116.231 -16.066)" fill="#ce0c17"/>
    <path id="Tracé_71" data-name="Tracé 71" d="M300.027,82.233l-.237.334.237-.334" transform="translate(-99.939 -27.413)" fill="#ce0c17"/>
    <path id="Tracé_72" data-name="Tracé 72" d="M296.214,54.442c-.137.013-.2-.05-.2-.185l.149.034Z" transform="translate(-98.68 -18.087)" fill="#ce0c17"/>
    <path id="Tracé_73" data-name="Tracé 73" d="M295.708,53.774l-.276-.207.276.207" transform="translate(-98.486 -17.857)" fill="#ce0c17"/>
    <path id="Tracé_74" data-name="Tracé 74" d="M274.594,23.52l.041.161-.147.082a.187.187,0,0,1,.105-.243" transform="translate(-91.5 -7.841)" fill="#ce0c17"/>
    <path id="Tracé_75" data-name="Tracé 75" d="M198.484,150.968a3.636,3.636,0,0,1-3.015,2.929c-1.85-.085-3.65-1.733-3.654-3.346,0-1.574,1.657-2.92,3.643-2.952a3.426,3.426,0,0,1,3.026,3.369" transform="translate(-63.944 -49.204)" fill="#fffffe"/>
    <path id="Tracé_76" data-name="Tracé 76" d="M187.49,160.334c-.079-1,.47-1.557,1.379-1.485a1.8,1.8,0,0,1,1.619,1.9,1.392,1.392,0,0,1-1.593,1.57c-1.112-.083-1.424-.974-1.4-1.985" transform="translate(-62.5 -52.952)" fill="#fffffe"/>
    <path id="Tracé_77" data-name="Tracé 77" d="M349.553,151.395c.147-1.111-.485-2.907,1.573-2.785a3.4,3.4,0,0,1,3.054,3.082c.281,1.59-.727,2.278-2.3,2.383-2,.133-2.533-.894-2.326-2.68" transform="translate(-116.514 -49.539)" fill="#170a0a"/>
    <path id="Tracé_78" data-name="Tracé 78" d="M395.29,131.268c-1.164.018-2.915.939-3.1-1.194a3.529,3.529,0,0,1,2.7-3.607c1.591-.53,2.452.4,2.8,2,.44,2.034-.535,2.739-2.4,2.8" transform="translate(-130.737 -42.11)" fill="#170a0a"/>
    <path id="Tracé_79" data-name="Tracé 79" d="M392.807,146.9c.264-1.111-.874-2.907,2.836-2.785,3.123.1,4.994,1.474,5.506,3.082.507,1.59-1.31,2.278-4.148,2.383-3.6.133-4.567-.894-4.193-2.68" transform="translate(-130.922 -48.041)" fill="#170a0a"/>
    <path id="Tracé_80" data-name="Tracé 80" d="M154.727,124.381c1.127,0,2.255-.014,3.381,0,1.446.023,2.337.535,2.425,2.209.094,1.779-.993,2.233-2.319,2.294-2.249.1-4.508-.04-6.76.021a5.922,5.922,0,0,0-6.119,5.983,37.754,37.754,0,0,0,0,4.174,2.178,2.178,0,0,1-2.229,2.643c-1.774.155-2.307-.976-2.449-2.445-.822-8.561,3.6-15.2,12.478-14.873.529.02,1.059,0,1.589,0v-.013" transform="translate(-46.858 -41.462)" fill="#fffffe"/>
    <path id="Tracé_81" data-name="Tracé 81" d="M308.465,132.085a2.593,2.593,0,0,1,2.921,2.767,4.479,4.479,0,0,1-3.783,3.958c-1.923.253-1.909-1.719-1.906-3.085,0-1.832.274-3.631,2.768-3.641" transform="translate(-101.908 -44.031)" fill="#fffffe"/>
    <path id="Tracé_82" data-name="Tracé 82" d="M137.018,157.1s-.541,7.257,5.869,8.784l11.6.305,1.781-2.9.911-2.493,1.022-2.239.47-1.411Z" transform="translate(-45.673 -52.372)" fill="#7a0b0e"/>
    <path id="Tracé_83" data-name="Tracé 83" d="M16.281,404.34c51.945-9.246,169.989-26.776,216.438-30.121-66.2,12.421-208.542,43.705-206.75,45.22-6.5-6.866-8.217-11.437-9.688-15.1" transform="translate(-5.427 -124.751)" fill="#ffa900"/>
    <path id="Tracé_84" data-name="Tracé 84" d="M406.192,357.946c-34.875-2.534-210.908,18.585-328.448,54.93,159.24-38.608,302.36-41.936,315.612-36.224,5.45-6.746,8.046-9.918,12.837-18.705" transform="translate(-25.917 -119.257)" fill="#ffa900"/>
    <path id="Tracé_85" data-name="Tracé 85" d="M450.444,390.81c-16.76-6.548-126.79.129-191.964,13C338.719,399.7,415,399.545,433.525,405.23a132.824,132.824,0,0,0,16.919-14.421" transform="translate(-86.168 -129.431)" fill="#ffa900"/>
    <path id="Tracé_86" data-name="Tracé 86" d="M445.925,242.121c-51.946,9.246-169.989,26.776-216.438,30.121,66.2-12.421,208.542-43.705,206.75-45.22,6.5,6.866,8.217,11.438,9.688,15.1" transform="translate(-76.502 -75.681)" fill="#ffa900"/>
    <path id="Tracé_87" data-name="Tracé 87" d="M0,283.558c34.876,2.533,210.908-18.585,328.448-54.93-159.24,38.608-302.359,41.936-315.612,36.224C7.387,271.6,4.79,274.771,0,283.558" transform="translate(0 -76.216)" fill="#ffa900"/>
    <path id="Tracé_88" data-name="Tracé 88" d="M24,269.778c16.76,6.548,126.79-.129,191.964-13-80.239,4.107-156.523,4.264-175.045-1.422A132.825,132.825,0,0,0,24,269.778" transform="translate(-8.001 -85.126)" fill="#ffa900"/>
    <path id="Tracé_89" data-name="Tracé 89" d="M2.053,370.371,2.446,358.6l5.856-.527c.011.131.027.305.047.525a3.739,3.739,0,0,0,.1.617,6.124,6.124,0,0,0,.654,1.8,4.7,4.7,0,0,0,1.25,1.462,5.482,5.482,0,0,0,1.915.923,7.5,7.5,0,0,0,2.673.177,6.7,6.7,0,0,0,1.893-.417,3.987,3.987,0,0,0,1.294-.791,2.872,2.872,0,0,0,.717-1.049,2.616,2.616,0,0,0,.165-1.183,2.766,2.766,0,0,0-1-1.976,7.859,7.859,0,0,0-2.905-1.264l-3.149-.823A31.187,31.187,0,0,1,8.567,355a10.218,10.218,0,0,1-2.72-1.527A7.269,7.269,0,0,1,3.958,351.2a8.634,8.634,0,0,1-.9-3.326,9.927,9.927,0,0,1,.411-3.91,9.355,9.355,0,0,1,1.9-3.381A10.5,10.5,0,0,1,8.683,338.1a13.191,13.191,0,0,1,4.673-1.232,10.86,10.86,0,0,1,3.371.153,9.527,9.527,0,0,1,2.375.844,6.02,6.02,0,0,1,1.459,1.037,7.074,7.074,0,0,1,.643.73l.079-2.959,5.953-.535-.39,10.71-5.66.509a8.12,8.12,0,0,0-.223-.841,6.748,6.748,0,0,0-.781-1.713,5.083,5.083,0,0,0-1.213-1.317A4.669,4.669,0,0,0,17.3,342.7a6.429,6.429,0,0,0-2.177-.137,5.7,5.7,0,0,0-1.687.386,3.474,3.474,0,0,0-1.151.743,2.6,2.6,0,0,0-.625.978,2.648,2.648,0,0,0-.133,1.119,2.851,2.851,0,0,0,.293,1.069,2.31,2.31,0,0,0,.725.808,5.193,5.193,0,0,0,1.237.627,15.7,15.7,0,0,0,1.806.525l3.242.767a20.359,20.359,0,0,1,3.455,1.091,9.458,9.458,0,0,1,2.619,1.635,7.343,7.343,0,0,1,1.751,2.376,9.86,9.86,0,0,1,.827,3.32,10.773,10.773,0,0,1-.423,4.195,9.519,9.519,0,0,1-2.017,3.563,11.087,11.087,0,0,1-3.555,2.6,14.681,14.681,0,0,1-5.036,1.289,13.324,13.324,0,0,1-2.967-.029,9.622,9.622,0,0,1-2.3-.579,7,7,0,0,1-1.711-.966,6.683,6.683,0,0,1-1.189-1.185l-.129,2.939Z" transform="translate(-0.684 -112.054)" fill="#7a0b0e"/>
    <path id="Tracé_90" data-name="Tracé 90" d="M48.5,366.016l.161-5.868,3.757-.338.724-20.406-4.392.4-.2,5.207-5.978.537.364-11,28.839-2.593-.388,11-6.026.542.22-5.21-4.392.4-.723,20.406,3.781-.339-.185,5.87Z" transform="translate(-14.194 -110.659)" fill="#7a0b0e"/>
    <path id="Tracé_91" data-name="Tracé 91" d="M108.351,361.147l-5.738-11.585-2.953.265-.243,6.318,2.855-.257-.117,5.816L87.515,363.02l.113-5.864,3.757-.337.731-20.333-3.685.331.113-5.864,15.786-1.419a21.964,21.964,0,0,1,4.146.009,9.933,9.933,0,0,1,3.635,1.038,7.245,7.245,0,0,1,2.692,2.452,9,9,0,0,1,1.316,4.248,11.427,11.427,0,0,1-.2,3.559,9.723,9.723,0,0,1-1.175,2.947,9.521,9.521,0,0,1-1.993,2.318,11.491,11.491,0,0,1-2.653,1.678l4.022,6.992,3.685-.331-.333,5.884ZM103.2,343.778a5.585,5.585,0,0,0,3.746-1.558,4.229,4.229,0,0,0,1.047-3.412,4.733,4.733,0,0,0-.368-1.5,3.023,3.023,0,0,0-.826-1.111,3.261,3.261,0,0,0-1.349-.643,6.056,6.056,0,0,0-1.94-.1l-3.392.3-.31,8.317Z" transform="translate(-29.174 -109.823)" fill="#7a0b0e"/>
    <path id="Tracé_92" data-name="Tracé 92" d="M134.656,358.4l.161-5.868,3.709-.333.681-20.328-3.684.331.161-5.868,25.3-2.274-.343,9.869-5.977.537.079-4.04-7.49.673-.259,6.689,7.808-.7-.226,5.972-7.759.7-.265,7.722,8.466-.761.119-5.25,6.2-.557-.353,11.125Z" transform="translate(-44.889 -108.03)" fill="#7a0b0e"/>
    <path id="Tracé_93" data-name="Tracé 93" d="M177.624,354.54l.161-5.869,3.709-.333.681-20.328-3.684.331.161-5.868,25.3-2.274-.343,9.869-5.977.538.079-4.041-7.491.673-.259,6.689,7.808-.7-.225,5.973-7.759.7-.265,7.722,8.466-.761.119-5.25,6.2-.557-.353,11.124Z" transform="translate(-59.213 -106.742)" fill="#7a0b0e"/>
    <path id="Tracé_94" data-name="Tracé 94" d="M227,349.973l.161-5.869,3.757-.337.724-20.406-4.392.4-.2,5.207-5.978.537.364-11,28.84-2.593-.388,11-6.027.542.221-5.21-4.392.4-.723,20.406,3.782-.339-.186,5.87Z" transform="translate(-73.699 -105.311)" fill="#7a0b0e"/>
    <path id="Tracé_95" data-name="Tracé 95" d="M278.458,345.826l.161-5.869,3.66-.329.779-20.337-3.733.335.161-5.868,16.543-1.487A19.24,19.24,0,0,1,300,312.3a9.024,9.024,0,0,1,3.209.954,5.992,5.992,0,0,1,2.239,2.049,7.156,7.156,0,0,1,1.035,3.314,8.1,8.1,0,0,1-.218,2.909,6.928,6.928,0,0,1-1.109,2.3,7.762,7.762,0,0,1-1.8,1.736,10.878,10.878,0,0,1-2.289,1.214,9.771,9.771,0,0,1,2.415.595,6.641,6.641,0,0,1,1.991,1.211,5.951,5.951,0,0,1,1.414,1.915,7.981,7.981,0,0,1,.688,2.73,9.205,9.205,0,0,1-2.734,7.624,11.407,11.407,0,0,1-3.709,2.241,19.534,19.534,0,0,1-5.4,1.186Zm15.557-7.252a11.471,11.471,0,0,0,2.239-.4,4.251,4.251,0,0,0,1.586-.831,3.555,3.555,0,0,0,.971-1.514,5.024,5.024,0,0,0,.206-2.085,4.142,4.142,0,0,0-.5-1.739,2.885,2.885,0,0,0-1.029-1.051,3.905,3.905,0,0,0-1.4-.477,6.732,6.732,0,0,0-1.6-.04l-3.9.351-.279,8.117Zm.145-13.443a6.972,6.972,0,0,0,1.727-.352,3.815,3.815,0,0,0,1.25-.73,3.306,3.306,0,0,0,.875-1.349,4.062,4.062,0,0,0,.2-1.734,2.9,2.9,0,0,0-1.124-2.243,4.025,4.025,0,0,0-2.743-.545l-3.245.292-.235,6.957Z" transform="translate(-92.827 -104.069)" fill="#7a0b0e"/>
    <path id="Tracé_96" data-name="Tracé 96" d="M345.321,313.073l-3.2.287.113-5.864,13.956-1.254-.186,5.87-3.391.3-.489,13.707a21.99,21.99,0,0,1-.832,5.528,11.9,11.9,0,0,1-2.257,4.314,11.244,11.244,0,0,1-3.9,2.948,17.264,17.264,0,0,1-5.824,1.435,16.43,16.43,0,0,1-5.306-.274,9.41,9.41,0,0,1-3.8-1.813,8.463,8.463,0,0,1-2.4-3.206,14.275,14.275,0,0,1-1.081-4.482q-.081-.9-.1-1.911t.053-2.417l.468-11.539-3.4.3.137-5.866,14.614-1.313-.137,5.866-3.147.283-.493,12.851q-.058.719-.052,1.335c0,.41.021.778.049,1.1a4.21,4.21,0,0,0,1.5,3.117,4.982,4.982,0,0,0,3.6.809,6.2,6.2,0,0,0,2.187-.566,4.483,4.483,0,0,0,1.517-1.183,4.946,4.946,0,0,0,.9-1.745,9.475,9.475,0,0,0,.364-2.249Z" transform="translate(-107.927 -102.09)" fill="#7a0b0e"/>
    <path id="Tracé_97" data-name="Tracé 97" d="M394.42,335.436l-5.74-11.585-2.953.265-.243,6.318,2.854-.257-.116,5.816-14.639,1.315.113-5.864,3.756-.337.731-20.332-3.684.331.113-5.864,15.786-1.419a21.954,21.954,0,0,1,4.145.009,9.926,9.926,0,0,1,3.635,1.038,7.235,7.235,0,0,1,2.692,2.452,9,9,0,0,1,1.317,4.248,11.446,11.446,0,0,1-.2,3.559,9.74,9.74,0,0,1-1.175,2.947,9.547,9.547,0,0,1-1.993,2.318,11.509,11.509,0,0,1-2.653,1.678l4.022,6.992,3.685-.331-.332,5.884Zm-5.152-17.369a5.585,5.585,0,0,0,3.746-1.558,4.229,4.229,0,0,0,1.046-3.412,4.734,4.734,0,0,0-.368-1.5,3.022,3.022,0,0,0-.825-1.111,3.268,3.268,0,0,0-1.349-.643,6.048,6.048,0,0,0-1.939-.1l-3.391.3-.311,8.317Z" transform="translate(-124.539 -101.252)" fill="#7a0b0e"/>
    <path id="Tracé_98" data-name="Tracé 98" d="M443.05,330.566l-.371-3.041a8.906,8.906,0,0,1-1.4,1.553,10.662,10.662,0,0,1-1.909,1.339A12.7,12.7,0,0,1,437,331.429a13.779,13.779,0,0,1-8.094-.011,10.666,10.666,0,0,1-4.114-2.532,12.837,12.837,0,0,1-2.777-4.215,18.709,18.709,0,0,1-1.327-5.6,24.349,24.349,0,0,1,.426-7.441,18.262,18.262,0,0,1,2.6-6.272,14.855,14.855,0,0,1,4.664-4.477,15.067,15.067,0,0,1,6.626-2.084,13.073,13.073,0,0,1,3.016.035,9.656,9.656,0,0,1,2.305.605,7.075,7.075,0,0,1,1.713.99,7.941,7.941,0,0,1,1.214,1.194l.094-3.058,6.2-.557-.379,11.1-6.125.551a6.633,6.633,0,0,0-.661-2.019,5.321,5.321,0,0,0-1.29-1.631,5.472,5.472,0,0,0-1.925-1.032,6.731,6.731,0,0,0-2.615-.221,7.022,7.022,0,0,0-3.55,1.279,8.821,8.821,0,0,0-2.515,2.821,12.272,12.272,0,0,0-1.39,3.962,17.583,17.583,0,0,0-.179,4.7q.368,4.1,2.352,6.06a6.065,6.065,0,0,0,5.058,1.686,7.137,7.137,0,0,0,1.677-.36,8.415,8.415,0,0,0,1.535-.7,8.514,8.514,0,0,0,1.317-.955,6.19,6.19,0,0,0,1.017-1.136l.172-3.287-5.148.462.234-5.874L452.4,312.04l-.161,5.869-2.562.229-.433,11.87Z" transform="translate(-140.207 -99.344)" fill="#7a0b0e"/>
    <path id="Tracé_99" data-name="Tracé 99" d="M471.085,328.164l.161-5.868,3.709-.333.681-20.328-3.684.331.161-5.868,25.3-2.274-.343,9.869-5.977.537.08-4.041-7.491.673-.259,6.689,7.808-.7-.225,5.972-7.76.7-.265,7.722,8.466-.761.119-5.25,6.2-.557-.353,11.125Z" transform="translate(-157.042 -97.95)" fill="#7a0b0e"/>
    <path id="Tracé_100" data-name="Tracé 100" d="M534.891,322.811l-5.74-11.585-2.953.265-.243,6.318,2.855-.257-.117,5.816-14.639,1.315.113-5.864,3.757-.337.73-20.332-3.684.331.113-5.864,15.786-1.419a21.954,21.954,0,0,1,4.145.009,9.913,9.913,0,0,1,3.635,1.038,7.241,7.241,0,0,1,2.693,2.452,9,9,0,0,1,1.316,4.247,11.43,11.43,0,0,1-.2,3.559,9.7,9.7,0,0,1-1.175,2.947,9.512,9.512,0,0,1-1.993,2.319,11.5,11.5,0,0,1-2.653,1.678l4.022,6.992,3.685-.331-.332,5.884Zm-5.152-17.369a5.585,5.585,0,0,0,3.746-1.559,4.224,4.224,0,0,0,1.046-3.411,4.724,4.724,0,0,0-.367-1.5,3.033,3.033,0,0,0-.826-1.11,3.259,3.259,0,0,0-1.349-.643,6.05,6.05,0,0,0-1.939-.1l-3.391.3-.311,8.317Z" transform="translate(-171.366 -97.043)" fill="#7a0b0e"/>
    <path id="Tracé_101" data-name="Tracé 101" d="M.053,367.371.446,355.6l5.856-.527c.011.131.027.305.047.525a3.739,3.739,0,0,0,.1.617,6.125,6.125,0,0,0,.654,1.8,4.7,4.7,0,0,0,1.25,1.462,5.482,5.482,0,0,0,1.915.923,7.5,7.5,0,0,0,2.673.177,6.7,6.7,0,0,0,1.893-.417,3.987,3.987,0,0,0,1.294-.791,2.872,2.872,0,0,0,.717-1.049,2.616,2.616,0,0,0,.165-1.183,2.766,2.766,0,0,0-1-1.976,7.86,7.86,0,0,0-2.905-1.264l-3.149-.823A31.194,31.194,0,0,1,6.567,352a10.218,10.218,0,0,1-2.72-1.527A7.269,7.269,0,0,1,1.958,348.2a8.634,8.634,0,0,1-.9-3.326,9.927,9.927,0,0,1,.411-3.91,9.355,9.355,0,0,1,1.9-3.381A10.5,10.5,0,0,1,6.683,335.1a13.191,13.191,0,0,1,4.673-1.232,10.86,10.86,0,0,1,3.371.153,9.528,9.528,0,0,1,2.375.844,6.021,6.021,0,0,1,1.459,1.037,7.074,7.074,0,0,1,.643.73l.079-2.959,5.953-.535-.39,10.71-5.66.509a8.119,8.119,0,0,0-.223-.841,6.748,6.748,0,0,0-.781-1.713,5.084,5.084,0,0,0-1.213-1.317A4.67,4.67,0,0,0,15.3,339.7a6.428,6.428,0,0,0-2.177-.137,5.7,5.7,0,0,0-1.687.386,3.474,3.474,0,0,0-1.151.743,2.6,2.6,0,0,0-.625.978,2.648,2.648,0,0,0-.133,1.119,2.851,2.851,0,0,0,.293,1.069,2.31,2.31,0,0,0,.725.808,5.192,5.192,0,0,0,1.237.627,15.7,15.7,0,0,0,1.806.525l3.242.767a20.365,20.365,0,0,1,3.455,1.091,9.459,9.459,0,0,1,2.619,1.635,7.343,7.343,0,0,1,1.751,2.376,9.86,9.86,0,0,1,.827,3.32,10.773,10.773,0,0,1-.423,4.195,9.519,9.519,0,0,1-2.017,3.563,11.088,11.088,0,0,1-3.555,2.6,14.681,14.681,0,0,1-5.036,1.289,13.322,13.322,0,0,1-2.967-.029,9.622,9.622,0,0,1-2.3-.579,7,7,0,0,1-1.711-.966,6.685,6.685,0,0,1-1.189-1.185l-.129,2.939Z" transform="translate(-0.018 -111.054)" fill="#fff"/>
    <path id="Tracé_102" data-name="Tracé 102" d="M46.5,363.016l.161-5.868,3.757-.338.724-20.406-4.392.4-.2,5.207-5.978.537.364-11,28.839-2.593-.388,11-6.026.542.22-5.21-4.392.4-.723,20.406,3.781-.339-.185,5.87Z" transform="translate(-13.527 -109.659)" fill="#fff"/>
    <path id="Tracé_103" data-name="Tracé 103" d="M106.351,358.147l-5.738-11.585-2.953.265-.243,6.318,2.855-.257-.117,5.816L85.515,360.02l.113-5.864,3.757-.337.731-20.333-3.685.331.113-5.864,15.786-1.419a21.961,21.961,0,0,1,4.146.009,9.933,9.933,0,0,1,3.635,1.038,7.245,7.245,0,0,1,2.692,2.452,9,9,0,0,1,1.316,4.248,11.426,11.426,0,0,1-.2,3.559,9.723,9.723,0,0,1-1.175,2.947,9.52,9.52,0,0,1-1.993,2.318,11.491,11.491,0,0,1-2.653,1.678l4.022,6.992,3.685-.331-.333,5.884ZM101.2,340.778a5.585,5.585,0,0,0,3.746-1.558,4.229,4.229,0,0,0,1.047-3.412,4.734,4.734,0,0,0-.368-1.5,3.023,3.023,0,0,0-.826-1.111,3.261,3.261,0,0,0-1.349-.643,6.055,6.055,0,0,0-1.94-.1l-3.392.3-.31,8.317Z" transform="translate(-28.507 -108.823)" fill="#fff"/>
    <path id="Tracé_104" data-name="Tracé 104" d="M132.656,355.4l.161-5.868,3.709-.333.681-20.328-3.684.331.161-5.868,25.3-2.274-.343,9.869-5.977.537.079-4.04-7.49.673-.259,6.689,7.808-.7-.226,5.972-7.759.7-.265,7.722,8.466-.761.119-5.25,6.2-.557-.353,11.125Z" transform="translate(-44.222 -107.03)" fill="#fff"/>
    <path id="Tracé_105" data-name="Tracé 105" d="M175.624,351.54l.161-5.869,3.709-.333.681-20.328-3.684.331.161-5.868,25.3-2.274-.343,9.869-5.977.538.079-4.041-7.491.673-.259,6.689,7.808-.7-.225,5.973-7.759.7-.265,7.722,8.466-.761.119-5.25,6.2-.557-.353,11.124Z" transform="translate(-58.547 -105.742)" fill="#fff"/>
    <path id="Tracé_106" data-name="Tracé 106" d="M225,346.973l.161-5.869,3.757-.337.724-20.406-4.392.4-.2,5.207-5.978.537.364-11,28.84-2.593-.388,11-6.027.542.221-5.21-4.392.4-.723,20.406,3.782-.339-.186,5.87Z" transform="translate(-73.032 -104.311)" fill="#fff"/>
    <path id="Tracé_107" data-name="Tracé 107" d="M276.458,342.826l.161-5.869,3.66-.329.779-20.337-3.733.335.161-5.868,16.543-1.487A19.238,19.238,0,0,1,298,309.3a9.023,9.023,0,0,1,3.209.954,5.991,5.991,0,0,1,2.239,2.049,7.156,7.156,0,0,1,1.035,3.314,8.1,8.1,0,0,1-.218,2.909,6.928,6.928,0,0,1-1.109,2.3,7.761,7.761,0,0,1-1.8,1.736,10.879,10.879,0,0,1-2.289,1.214,9.772,9.772,0,0,1,2.415.595,6.641,6.641,0,0,1,1.991,1.211,5.951,5.951,0,0,1,1.414,1.915,7.98,7.98,0,0,1,.688,2.73,9.206,9.206,0,0,1-2.734,7.624,11.406,11.406,0,0,1-3.709,2.241,19.534,19.534,0,0,1-5.4,1.186Zm15.557-7.252a11.471,11.471,0,0,0,2.239-.4,4.251,4.251,0,0,0,1.586-.831,3.556,3.556,0,0,0,.971-1.514,5.025,5.025,0,0,0,.206-2.085,4.142,4.142,0,0,0-.5-1.739,2.885,2.885,0,0,0-1.029-1.051,3.905,3.905,0,0,0-1.4-.477,6.731,6.731,0,0,0-1.6-.04l-3.9.351-.279,8.117Zm.145-13.443a6.969,6.969,0,0,0,1.727-.352,3.814,3.814,0,0,0,1.25-.73,3.307,3.307,0,0,0,.875-1.349,4.061,4.061,0,0,0,.2-1.734,2.9,2.9,0,0,0-1.124-2.243,4.025,4.025,0,0,0-2.743-.545l-3.245.292-.235,6.957Z" transform="translate(-92.161 -103.069)" fill="#fff"/>
    <path id="Tracé_108" data-name="Tracé 108" d="M343.321,310.073l-3.2.287.113-5.864,13.956-1.254-.186,5.87-3.391.3-.489,13.707a21.99,21.99,0,0,1-.832,5.528,11.9,11.9,0,0,1-2.257,4.314,11.244,11.244,0,0,1-3.9,2.948,17.264,17.264,0,0,1-5.824,1.435,16.431,16.431,0,0,1-5.306-.274,9.41,9.41,0,0,1-3.8-1.813,8.463,8.463,0,0,1-2.4-3.206,14.274,14.274,0,0,1-1.081-4.482q-.081-.9-.1-1.911t.053-2.417l.468-11.539-3.4.3.137-5.866,14.614-1.313-.137,5.866-3.147.283-.493,12.851q-.058.719-.052,1.335c0,.41.021.778.049,1.1a4.21,4.21,0,0,0,1.5,3.117,4.982,4.982,0,0,0,3.6.809,6.2,6.2,0,0,0,2.187-.566,4.484,4.484,0,0,0,1.517-1.183,4.946,4.946,0,0,0,.9-1.745,9.475,9.475,0,0,0,.364-2.249Z" transform="translate(-107.26 -101.089)" fill="#fff"/>
    <path id="Tracé_109" data-name="Tracé 109" d="M392.42,332.436l-5.74-11.585-2.953.265-.243,6.318,2.854-.257-.116,5.816-14.639,1.315.113-5.864,3.756-.337.731-20.332-3.684.331.113-5.864,15.786-1.419a21.954,21.954,0,0,1,4.145.009,9.925,9.925,0,0,1,3.635,1.038,7.234,7.234,0,0,1,2.692,2.452,9,9,0,0,1,1.317,4.248,11.446,11.446,0,0,1-.2,3.559,9.74,9.74,0,0,1-1.175,2.947,9.547,9.547,0,0,1-1.993,2.318,11.508,11.508,0,0,1-2.653,1.678l4.022,6.992,3.685-.331-.332,5.884Zm-5.152-17.369a5.585,5.585,0,0,0,3.746-1.558,4.229,4.229,0,0,0,1.046-3.412,4.734,4.734,0,0,0-.368-1.5,3.022,3.022,0,0,0-.825-1.111,3.268,3.268,0,0,0-1.349-.643,6.048,6.048,0,0,0-1.939-.1l-3.391.3-.311,8.317Z" transform="translate(-123.872 -100.252)" fill="#fff"/>
    <path id="Tracé_110" data-name="Tracé 110" d="M441.05,327.566l-.371-3.041a8.906,8.906,0,0,1-1.4,1.553,10.664,10.664,0,0,1-1.909,1.339A12.7,12.7,0,0,1,435,328.429a13.779,13.779,0,0,1-8.094-.011,10.665,10.665,0,0,1-4.114-2.532,12.836,12.836,0,0,1-2.777-4.215,18.708,18.708,0,0,1-1.327-5.6,24.349,24.349,0,0,1,.426-7.441,18.263,18.263,0,0,1,2.6-6.272,14.856,14.856,0,0,1,4.664-4.477,15.066,15.066,0,0,1,6.626-2.084,13.072,13.072,0,0,1,3.016.035,9.656,9.656,0,0,1,2.305.605,7.074,7.074,0,0,1,1.713.99,7.938,7.938,0,0,1,1.214,1.194l.094-3.058,6.2-.557-.379,11.1-6.125.551a6.632,6.632,0,0,0-.661-2.019,5.32,5.32,0,0,0-1.29-1.631,5.472,5.472,0,0,0-1.925-1.032,6.731,6.731,0,0,0-2.615-.221,7.023,7.023,0,0,0-3.55,1.279,8.821,8.821,0,0,0-2.515,2.821,12.272,12.272,0,0,0-1.39,3.962,17.58,17.58,0,0,0-.179,4.7q.368,4.1,2.352,6.06a6.065,6.065,0,0,0,5.058,1.686,7.137,7.137,0,0,0,1.677-.36,8.416,8.416,0,0,0,1.535-.7,8.516,8.516,0,0,0,1.317-.955,6.19,6.19,0,0,0,1.017-1.136l.172-3.287-5.148.462.234-5.874L450.4,309.04l-.161,5.869-2.562.229-.433,11.87Z" transform="translate(-139.54 -98.344)" fill="#fff"/>
    <path id="Tracé_111" data-name="Tracé 111" d="M469.085,325.164l.161-5.868,3.709-.333.681-20.328-3.684.331.161-5.868,25.3-2.274-.343,9.869-5.977.537.08-4.041-7.491.673-.259,6.689,7.808-.7-.225,5.972-7.76.7-.265,7.722,8.466-.761.119-5.25,6.2-.557-.353,11.125Z" transform="translate(-156.375 -96.95)" fill="#fff"/>
    <path id="Tracé_112" data-name="Tracé 112" d="M532.891,319.811l-5.74-11.585-2.953.265-.243,6.318,2.855-.257-.117,5.816-14.639,1.315.113-5.864,3.757-.337.73-20.332-3.684.331.113-5.864,15.786-1.419a21.954,21.954,0,0,1,4.145.009,9.913,9.913,0,0,1,3.635,1.038,7.242,7.242,0,0,1,2.693,2.452,9,9,0,0,1,1.316,4.247,11.432,11.432,0,0,1-.2,3.559,9.7,9.7,0,0,1-1.175,2.947,9.511,9.511,0,0,1-1.993,2.319,11.494,11.494,0,0,1-2.653,1.678l4.022,6.992,3.685-.331-.332,5.884Zm-5.152-17.369a5.585,5.585,0,0,0,3.746-1.559,4.224,4.224,0,0,0,1.046-3.411,4.724,4.724,0,0,0-.367-1.5,3.033,3.033,0,0,0-.826-1.11,3.26,3.26,0,0,0-1.349-.643,6.048,6.048,0,0,0-1.939-.1l-3.391.3-.311,8.317Z" transform="translate(-170.7 -96.043)" fill="#fff"/>
  </g>
</svg>
